<svg id="Capa_2" data-name="Capa 2" xmlns="http://www.w3.org/2000/svg" viewBox="0 0 1081.18 117.12"><title>Bg</title><path d="M251.43,56.17V44.64h5.76V56.17Zm5.76,5.75V56.17h11.52v5.75Zm11.52-5.75V10.08h5.76V56.17Z" transform="translate(-2.4 -10.08)"/><path d="M281.67,56.16V44.64h5.76V56.16Zm5.76-23V27.36h17.28v5.77Zm23,0V61.92h-23V56.16h17.28V44.64H287.43V38.88h17.28V33.13Z" transform="translate(-2.4 -10.08)"/><path d="M317.67,38.88V27.36h5.76V38.88Zm5.76,11.53V38.88h5.75V50.41Zm5.75,11.51V50.41H335V61.92ZM335,50.41V38.88h5.76V50.41Zm5.76-11.53V27.36h5.75V38.88Z" transform="translate(-2.4 -10.08)"/><path d="M353.67,56.16V44.64h5.76V56.16Zm5.76-23V27.36h17.28v5.77Zm23,0V61.92h-23V56.16h17.28V44.64H359.43V38.88h17.28V33.13Z" transform="translate(-2.4 -10.08)"/><path d="M389.67,38.88V33.13h5.76v5.75Zm0,17.29V50.41h5.76v5.76Zm5.76-23V27.36H407v5.77Zm0,11.51V38.88h5.75v5.76Zm0,17.28V56.17H407v5.75Zm5.75-11.51V44.64H407v5.77ZM407,38.88V33.13h5.76v5.75Zm0,17.29V50.41h5.76v5.76Z" transform="translate(-2.4 -10.08)"/><path d="M419.91,56.17v-23h5.76v23Zm5.76-23V27.36H443v5.77Zm0,28.79V56.17H443v5.75Zm17.28-23V33.13h5.75v5.75Zm0,17.29V50.41h5.75v5.76Z" transform="translate(-2.4 -10.08)"/><path d="M467.42,27.36v5.77h-5.75V61.92h-5.76V27.36Z" transform="translate(-2.4 -10.08)"/><path d="M474.63,15.85V10.08h5.76v5.77Zm0,46.07V27.36h5.76V61.92Z" transform="translate(-2.4 -10.08)"/><path d="M493.35,56.17h17.28v5.75H493.35V73.43h-5.76V27.36h23v5.77H493.35Zm17.28,0v-23h5.75v23Z" transform="translate(-2.4 -10.08)"/><path d="M529.35,33.13v23h-5.76V15.85h5.76V27.36h5.75v5.77Zm0,28.79V56.17h5.75v5.75Z" transform="translate(-2.4 -10.08)"/><path d="M558.08,56.16v-23h5.75v23Zm28.79-46.08V61.92h-23V56.16h17.28v-23H563.83V27.36h17.28V10.08Z" transform="translate(-2.4 -10.08)"/><path d="M599.83,44.64V56.17h-5.75v-23h5.75v5.75h17.28V33.13h5.76V44.64Zm0-11.51V27.36h17.28v5.77Zm0,28.79V56.17h17.28v5.75Zm17.28-5.75V50.41h5.76v5.76Z" transform="translate(-2.4 -10.08)"/><path d="M630.08,38.88V27.36h5.75V38.88Zm5.75,11.53V38.88h5.76V50.41Zm5.76,11.51V50.41h5.77V61.92Zm5.77-11.51V38.88h5.75V50.41Zm5.75-11.53V27.36h5.76V38.88Z" transform="translate(-2.4 -10.08)"/><path d="M671.83,44.64V56.17h-5.75v-23h5.75v5.75h17.28V33.13h5.76V44.64Zm0-11.51V27.36h17.28v5.77Zm0,28.79V56.17h17.28v5.75Zm17.28-5.75V50.41h5.76v5.76Z" transform="translate(-2.4 -10.08)"/><path d="M702.08,61.92V10.08h5.75V61.92Z" transform="translate(-2.4 -10.08)"/><path d="M715,56.17v-23h5.75v23Zm5.75-23V27.36h17.29v5.77Zm0,28.79V56.17h17.29v5.75Zm17.29-5.75v-23h5.75v23Z" transform="translate(-2.4 -10.08)"/><path d="M756.79,56.17h17.28v5.75H756.79V73.43H751V27.36h23v5.77H756.79Zm17.28,0v-23h5.76v23Z" transform="translate(-2.4 -10.08)"/><path d="M792.79,44.64V56.17H787v-23h5.75v5.75h17.28V33.13h5.76V44.64Zm0-11.51V27.36h17.28v5.77Zm0,28.79V56.17h17.28v5.75Zm17.28-5.75V50.41h5.76v5.76Z" transform="translate(-2.4 -10.08)"/><path d="M834.55,27.36v5.77h-5.76V61.92H823V27.36Z" transform="translate(-2.4 -10.08)"/><path d="M21.59,100.33v3.83H6.24v15.36H2.4V85H21.59V88.8H6.24v11.53Zm0,0V88.8h3.85v11.52Zm0,19.2V104.16h3.85v15.36Z" transform="translate(-2.4 -10.08)"/><path d="M34.08,108v7.68H30.24V100.33h3.84v3.83H45.6v-3.83h3.83V108Zm0-7.68V96.48H45.6v3.84Zm0,19.2v-3.84H45.6v3.84Zm11.52-3.84v-3.83h3.83v3.83Z" transform="translate(-2.4 -10.08)"/><path d="M54.24,115.68V108h3.84v7.68Zm3.84-15.36V96.48H69.6v3.84Zm15.35,0v19.2H58.08v-3.84H69.6V108H58.08v-3.84H69.6v-3.84Z" transform="translate(-2.4 -10.08)"/><path d="M78.24,115.68V100.33h3.84v15.35Zm3.84-15.36V96.48H93.6v3.84Zm0,19.2v-3.84H93.6v3.84ZM93.6,104.16v-3.83h3.83v3.83Zm0,11.52v-3.83h3.83v3.83Z" transform="translate(-2.4 -10.08)"/><path d="M106.08,100.33v15.35h-3.84V88.8h3.84v7.68h3.83v3.85Zm0,19.19v-3.84h3.83v3.84Z" transform="translate(-2.4 -10.08)"/><path d="M114.72,119.52v-3.84h3.84v3.84Z" transform="translate(-2.4 -10.08)"/><path d="M123.36,88.8V85h3.84V88.8Zm0,38.39V96.48h3.84v30.71Z" transform="translate(-2.4 -10.08)"/><path d="M132,104.16v-3.83h3.84v3.83Zm0,11.52v-3.83h3.84v3.83Zm3.84-15.36V96.48h7.68v3.84Zm0,7.68v-3.84h3.83V108Zm0,11.52v-3.84h7.68v3.84Zm3.83-7.67V108h3.85v3.85Zm3.85-7.69v-3.83h3.84v3.83Zm0,11.52v-3.83h3.84v3.83Z" transform="translate(-2.4 -10.08)"/><path d="M181.86,106.75v3.84H162.67v-3.84Z" transform="translate(-2.4 -10.08)"/><path d="M201,88.8v11.53h11.52v3.83H201v11.52h15.36v3.84h-19.2V85h19.2V88.8Z" transform="translate(-2.4 -10.08)"/><path d="M221.13,104.16V96.48H225v7.68Zm0,15.36v-7.67H225v7.67Zm3.84-7.67v-7.69h7.68v7.69Zm7.68-7.69V96.48h3.84v7.68Zm0,15.36v-7.67h3.84v7.67Z" transform="translate(-2.4 -10.08)"/><path d="M245.13,115.68h11.52v3.84H245.13v7.67h-3.84V96.48h15.36v3.85H245.13Zm11.52,0V100.33h3.84v15.35Z" transform="translate(-2.4 -10.08)"/><path d="M273,96.48v3.84h-3.84v19.2h-3.84v-23Z" transform="translate(-2.4 -10.08)"/><path d="M281.61,108v7.68h-3.84V100.33h3.84v3.83h11.52v-3.83H297V108Zm0-7.68V96.48h11.52v3.84Zm0,19.2v-3.84h11.52v3.84Zm11.52-3.84v-3.83H297v3.83Z" transform="translate(-2.4 -10.08)"/><path d="M301.77,104.16v-3.83h3.84v3.83Zm0,11.52v-3.83h3.84v3.83Zm3.84-15.36V96.48h7.68v3.84Zm0,7.68v-3.84h3.84V108Zm0,11.52v-3.84h7.68v3.84Zm3.84-7.67V108h3.84v3.85Zm3.84-7.69v-3.83h3.84v3.83Zm0,11.52v-3.83h3.84v3.83Z" transform="translate(-2.4 -10.08)"/><path d="M321.93,104.16v-3.83h3.84v3.83Zm0,11.52v-3.83h3.84v3.83Zm3.84-15.36V96.48h7.68v3.84Zm0,7.68v-3.84h3.84V108Zm0,11.52v-3.84h7.68v3.84Zm3.84-7.67V108h3.84v3.85Zm3.84-7.69v-3.83h3.84v3.83Zm0,11.52v-3.83h3.84v3.83Z" transform="translate(-2.4 -10.08)"/><path d="M342.09,119.52v-3.84h3.84v3.84Z" transform="translate(-2.4 -10.08)"/><path d="M350.73,88.8V85h3.84V88.8Zm0,38.39V96.48h3.84v30.71Z" transform="translate(-2.4 -10.08)"/><path d="M359.37,104.16v-3.83h3.84v3.83Zm0,11.52v-3.83h3.84v3.83Zm3.84-15.36V96.48h7.68v3.84Zm0,7.68v-3.84h3.84V108Zm0,11.52v-3.84h7.68v3.84Zm3.84-7.67V108h3.84v3.85Zm3.84-7.69v-3.83h3.84v3.83Zm0,11.52v-3.83h3.84v3.83Z" transform="translate(-2.4 -10.08)"/><path d="M409.24,106.75v3.84H390v-3.84Z" transform="translate(-2.4 -10.08)"/><path d="M424.51,92.64V85h3.83v7.68Zm3.83,11.52V92.64h3.84v11.52Zm3.84,7.69v-7.69H436v7.69Zm3.85,7.67v-7.67h3.83v7.67Zm3.83-7.67v-7.69h3.84v7.69Zm3.84-7.69V92.64h3.85v11.52Zm3.85,7.69v-7.69h3.84v7.69Zm3.84,7.67v-7.67h3.83v7.67Zm3.83-7.67v-7.69h3.85v7.69Zm3.85-7.69V92.64h3.84v11.52Zm3.84-11.52V85h3.84v7.68Z" transform="translate(-2.4 -10.08)"/><path d="M475.38,108v7.68h-3.83V100.33h3.83v3.83H486.9v-3.83h3.84V108Zm0-7.68V96.48H486.9v3.84Zm0,19.2v-3.84H486.9v3.84Zm11.52-3.84v-3.83h3.84v3.83Z" transform="translate(-2.4 -10.08)"/><path d="M499.38,115.68H510.9v3.84H495.55V85h3.83V96.48H510.9v3.84H499.38Zm11.52,0V100.32h3.84v15.36Z" transform="translate(-2.4 -10.08)"/><path d="M523.38,115.68H534.9v3.84H523.38v7.67h-3.83V96.48H534.9v3.85H523.38Zm11.52,0V100.33h3.84v15.35Z" transform="translate(-2.4 -10.08)"/><path d="M543.55,115.68V108h3.83v7.68Zm3.83-15.36V96.48H558.9v3.84Zm15.36,0v19.2H547.38v-3.84H558.9V108H547.38v-3.84H558.9v-3.84Z" transform="translate(-2.4 -10.08)"/><path d="M567.55,115.68V100.33h3.83v15.35Zm3.83-15.36V96.48H582.9v3.84Zm0,19.2v-3.84H582.9v3.84Zm11.52-15.36v-3.83h3.84v3.83Zm0,11.52v-3.83h3.84v3.83Z" transform="translate(-2.4 -10.08)"/><path d="M599.22,104.16V108h-3.84v11.52h-3.83V85h3.83v19.2Zm0,0v-3.83h3.85v3.83Zm0,7.69V108h3.85v3.85Zm3.85-11.53V96.48h3.83v3.84Zm0,15.36v-3.83h3.83v3.83Zm3.83,3.84v-3.84h3.84v3.84Z" transform="translate(-2.4 -10.08)"/><path d="M645.25,106.75v3.84H626.06v-3.84Z" transform="translate(-2.4 -10.08)"/><path d="M660.52,115.68V88.8h3.84v26.88Zm3.84-26.88V85h15.36V88.8Zm0,30.72v-3.84h11.52v3.84Zm15.36-3.84h-3.84v-3.83h3.84v-7.69H672v-3.83h11.52v19.19h-3.84Zm0-23V88.8h3.84v3.84Z" transform="translate(-2.4 -10.08)"/><path d="M688.36,88.8V85h3.84V88.8Zm0,30.72v-23h3.84v23Z" transform="translate(-2.4 -10.08)"/><path d="M700.84,100.33v15.35H697V88.8h3.84v7.68h3.84v3.85Zm0,19.19v-3.84h3.84v3.84Z" transform="translate(-2.4 -10.08)"/><path d="M713.32,100.33h3.83v3.83h-3.83v15.36h-3.84V85h3.84Zm3.83,0V96.48h7.69v3.84Zm7.69,19.2V100.33h3.84v19.19Z" transform="translate(-2.4 -10.08)"/><path d="M733.48,115.68V96.48h3.84v19.2Zm3.84,3.84v-3.84H745v3.84Zm15.36-23v23h-3.84v-3.84H745v-3.83h3.84V96.48Z" transform="translate(-2.4 -10.08)"/><path d="M761.32,115.68h11.52v3.84H757.48V85h3.84V96.48h11.52v3.84H761.32Zm11.52,0V100.32h3.84v15.36Z" transform="translate(-2.4 -10.08)"/><path d="M811.19,106.75v3.84H792v-3.84Z" transform="translate(-2.4 -10.08)"/><path d="M826.46,88.8V85h3.83V88.8Zm0,38.39V96.48h3.83v30.71Z" transform="translate(-2.4 -10.08)"/><path d="M835.1,104.16v-3.83h3.83v3.83Zm0,11.52v-3.83h3.83v3.83Zm3.83-15.36V96.48h7.69v3.84Zm0,7.68v-3.84h3.84V108Zm0,11.52v-3.84h7.69v3.84Zm3.84-7.67V108h3.85v3.85Zm3.85-7.69v-3.83h3.83v3.83Zm0,11.52v-3.83h3.83v3.83Z" transform="translate(-2.4 -10.08)"/><path d="M859.09,115.68h11.52v3.84H855.26V85h15.35V88.8H859.09Zm11.52-23V88.8h3.84v3.84Zm0,23v-3.83h3.84v3.83Zm3.84-3.83V92.64h3.85v19.21Z" transform="translate(-2.4 -10.08)"/><path d="M883.1,115.68V100.33h3.83v15.35Zm3.83-15.36V96.48h11.52v3.84Zm0,19.2v-3.84h11.52v3.84Zm11.52-3.84V100.33h3.84v15.35Z" transform="translate(-2.4 -10.08)"/><path d="M907.1,115.68V100.33h3.83v15.35Zm3.83-15.36V96.48h11.52v3.84Zm0,19.2v-3.84h11.52v3.84Zm11.52-15.36v-3.83h3.84v3.83Zm0,11.52v-3.83h3.84v3.83Z" transform="translate(-2.4 -10.08)"/><path d="M960.8,106.75v3.84H941.61v-3.84Z" transform="translate(-2.4 -10.08)"/><path d="M979.91,88.8v11.53h11.52v3.83H979.91v15.36h-3.84V85h19.2V88.8Z" transform="translate(-2.4 -10.08)"/><path d="M1000.07,88.8V85h3.84V88.8Zm0,30.72v-23h3.84v23Z" transform="translate(-2.4 -10.08)"/><path d="M1008.71,115.68V100.33h3.84v15.35Zm0,11.51v-3.83h15.36v3.83Zm19.19-30.71v26.88h-3.83v-3.84h-11.52v-3.84h11.52V100.33h-11.52V96.48Z" transform="translate(-2.4 -10.08)"/><path d="M1044.23,96.48v3.85h-7.68v19.19h-3.84v-23Zm0,23V100.33h3.84v19.19Zm3.84-19.2V96.48h7.68v3.84Zm7.68,19.2V100.33h3.84v19.19Z" transform="translate(-2.4 -10.08)"/><path d="M1064.39,115.68V108h3.84v7.68Zm3.84-15.36V96.48h11.52v3.84Zm15.35,0v19.2h-15.35v-3.84h11.52V108h-11.52v-3.84h11.52v-3.84Z" transform="translate(-2.4 -10.08)"/></svg>